{"title":"Poddubnyy (2014) WEB-DLRip [RUS]","uid":10728855,"size":769414276,"categoryP":"video","categoryS":"movies","magnet":"?xt=urn:btih:7497a95bfc99aad39319407aca9d7509ca9c2bb8&amp;dn=Poddubnyy+%282014%29+WEB-DLRip+%5BRUS%5D&amp;tr=udp%3A%2F%2Ftracker.openbittorrent.com%3A80&amp;tr=udp%3A%2F%2Fopen.demonii.com%3A1337&amp;tr=udp%3A%2F%2Ftracker.coppersurfer.tk%3A6969&amp;tr=udp%3A%2F%2Fexodus.desync.com%3A6969","seeders":1,"leechers":0,"uploader":"yfjfrj","files":1,"time":1407601332,"description":"Poddubnyy (2014) WEB-DLRip [RUS]\n\nMI:\nGeneral\nComplete name                            : D:moviesP0ddubniy.2014.O.WEB-DLRip.700MB.avi\nFormat                                   : AVI\nFormat/Info                              : Audio Video Interleave\nFile size                                : 734 MiB\nDuration                                 : 2h 2mn\nOverall bit rate                         : 837 Kbps\nWriting application                      : VirtualDubMod 1.5.10.3 | www.virtualdub-fr.org || (build 2550/release)\nWriting library                          : VirtualDub build 35491/release\n\nVideo\nID                                       : 0\nFormat                                   : MPEG-4 Visual\nFormat profile                           : Advanced Simple@L5\nFormat settings, BVOP                    : 2\nFormat settings, QPel                    : No\nFormat settings, GMC                     : No warppoints\nFormat settings, Matrix                  : Default (H.263)\nMuxing mode                              : Packed bitstream\nCodec ID                                 : XVID\nCodec ID/Hint                            : XviD\nDuration                                 : 2h 2mn\nBit rate                                 : 699 Kbps\nWidth                                    : 640 pixels\nHeight                                   : 272 pixels\nDisplay aspect ratio                     : 2.35:1\nFrame rate                               : 24.000 fps\nColor space                              : YUV\nChroma subsampling                       : 4:2:0\nBit depth                                : 8 bits\nScan type                                : Progressive\nCompression mode                         : Lossy\nBits/(Pixel*Frame)                       : 0.167\nStream size                              : 613 MiB (84%)\nWriting library                          : XviD 64\n\nAudio\nID                                       : 1\nFormat                                   : MPEG Audio\nFormat version                           : Version 1\nFormat profile                           : Layer 3\nMode                                     : Joint stereo\nMode extension                           : MS Stereo\nCodec ID                                 : 55\nCodec ID/Hint                            : MP3\nDuration                                 : 2h 2mn\nBit rate mode                            : Constant\nBit rate                                 : 128 Kbps\nChannel(s)                               : 2 channels\nSampling rate                            : 48.0 KHz\nCompression mode                         : Lossy\nStream size                              : 112 MiB (15%)\nAlignment                                : Split accross interleaves\nInterleave, duration                     : 42 ms (1.00 video frame)\nInterleave, preload duration             : 500 ms\n\nScreens: &lt;a href=&quot;\nhttp://i1.imageban.ru/out/2014/08/09/f0018700ec43ef96e9637e97bdabe1b0.png&quot; rel=&quot;nofollow&quot; target=&quot;_NEW&quot;&gt;\nhttp://i1.imageban.ru/out/2014/08/09/f0018700ec43ef96e9637e97bdabe1b0.png&lt;/a&gt; &lt;a href=&quot;\nhttp://i5.imageban.ru/out/2014/08/09/6cdfa962514ff5953e18a4a0d0f2d4ef.png&quot; rel=&quot;nofollow&quot; target=&quot;_NEW&quot;&gt;\nhttp://i5.imageban.ru/out/2014/08/09/6cdfa962514ff5953e18a4a0d0f2d4ef.png&lt;/a&gt; &lt;a href=&quot;\nhttp://i6.imageban.ru/out/2014/08/09/ed502968c66a8e6e9468ef22aa95e464.png&quot; rel=&quot;nofollow&quot; target=&quot;_NEW&quot;&gt;\nhttp://i6.imageban.ru/out/2014/08/09/ed502968c66a8e6e9468ef22aa95e464.png&lt;/a&gt; &lt;a href=&quot;\nhttp://i4.imageban.ru/out/2014/08/09/e092bcbb0a9d1c03a95681154b4095ca.png&quot; rel=&quot;nofollow&quot; target=&quot;_NEW&quot;&gt;\nhttp://i4.imageban.ru/out/2014/08/09/e092bcbb0a9d1c03a95681154b4095ca.png&lt;/a&gt;\n\nSample: &lt;a href=&quot;\nhttp://sendfile.su/1009402&quot; rel=&quot;nofollow&quot; target=&quot;_NEW&quot;&gt;\nhttp://sendfile.su/1009402&lt;/a&gt;\n","torrent":{"xt":"urn:btih:7497a95bfc99aad39319407aca9d7509ca9c2bb8","amp;dn":"Poddubnyy+%282014%29+WEB-DLRip+%5BRUS%5D","amp;tr":["udp%3A%2F%2Ftracker.openbittorrent.com%3A80","udp%3A%2F%2Fopen.demonii.com%3A1337","udp%3A%2F%2Ftracker.coppersurfer.tk%3A6969","udp%3A%2F%2Fexodus.desync.com%3A6969"],"infoHash":"7497a95bfc99aad39319407aca9d7509ca9c2bb8","infoHashBuffer":{"type":"Buffer","data":[116,151,169,91,252,153,170,211,147,25,64,122,202,157,117,9,202,156,43,184]},"announce":[],"urlList":[]}}